<svg width="40" height="40" viewBox="0 0 40 40" fill="none" xmlns="http://www.w3.org/2000/svg">
<circle opacity="0.2" cx="20" cy="20" r="20" fill="#F19D2A"/>
<g clip-path="url(#clip0_67_1723)">
<path d="M19.999 10.812C19.6107 10.812 19.2959 11.1268 19.2959 11.5151C19.2959 11.9034 19.6107 12.2183 19.999 12.2183C22.3256 12.2183 24.2185 14.1108 24.2185 16.437C24.2185 16.8253 24.5333 17.1401 24.9216 17.1401C25.3099 17.1401 25.6247 16.8253 25.6247 16.437C25.6247 13.3354 23.1011 10.812 19.999 10.812Z" fill="#F19D2A"/>
<path d="M18.1881 8.18884C15.0114 8.85264 12.4356 11.4038 11.7578 14.6002C11.1855 17.2994 11.8908 20.0092 13.6927 22.0349C14.5735 23.0251 15.0787 24.3321 15.0787 25.6245V27.0307C15.0787 27.9663 15.6912 28.7612 16.5361 29.0365C16.814 30.6783 18.239 31.9994 20.0005 31.9994C21.7616 31.9994 23.1869 30.6787 23.4649 29.0365C24.3099 28.7612 24.9224 27.9663 24.9224 27.0307V25.6244C24.9224 24.3295 25.4292 23.0382 26.3494 21.9884C27.6963 20.4518 28.438 18.4802 28.438 16.437C28.438 11.1136 23.5654 7.06543 18.1881 8.18884ZM20.0005 30.5932C19.0967 30.5932 18.3042 29.9713 18.0116 29.1354H21.9894C21.6968 29.9713 20.9044 30.5932 20.0005 30.5932ZM23.5162 27.0307C23.5162 27.4184 23.2007 27.7338 22.813 27.7338H17.188C16.8003 27.7338 16.4849 27.4184 16.4849 27.0307V26.3276H23.5162V27.0307ZM25.2919 21.0615C24.3112 22.1803 23.7079 23.5293 23.5548 24.9213H16.4464C16.2935 23.5286 15.6917 22.1663 14.7435 21.1003C13.2417 19.412 12.6549 17.1491 13.1335 14.8919C13.6922 12.2569 15.8391 10.1163 18.4758 9.56542C22.9769 8.62478 27.0318 12.005 27.0318 16.437C27.0318 18.1391 26.4139 19.7815 25.2919 21.0615Z" fill="#F19D2A"/>
<path d="M10.1094 16.437H8.70312C8.31481 16.437 8 16.7518 8 17.1401C8 17.5284 8.31481 17.8433 8.70312 17.8433H10.1094C10.4977 17.8433 10.8125 17.5284 10.8125 17.1401C10.8125 16.7518 10.4977 16.437 10.1094 16.437Z" fill="#F19D2A"/>
<path d="M10.4007 12.9215L9.40636 11.9271C9.13181 11.6525 8.68659 11.6525 8.412 11.9271C8.13741 12.2017 8.13741 12.6469 8.412 12.9215L9.40636 13.9159C9.68091 14.1904 10.1261 14.1905 10.4007 13.9159C10.6753 13.6413 10.6753 13.1961 10.4007 12.9215Z" fill="#F19D2A"/>
<path d="M10.4007 20.3646C10.1261 20.09 9.68091 20.09 9.40636 20.3646L8.412 21.359C8.13741 21.6336 8.13741 22.0788 8.412 22.3534C8.68655 22.6279 9.13177 22.628 9.40636 22.3534L10.4007 21.359C10.6753 21.0844 10.6753 20.6392 10.4007 20.3646Z" fill="#F19D2A"/>
<path d="M31.2969 16.437H29.8906C29.5023 16.437 29.1875 16.7518 29.1875 17.1401C29.1875 17.5284 29.5023 17.8433 29.8906 17.8433H31.2969C31.6852 17.8433 32 17.5284 32 17.1401C32 16.7518 31.6852 16.437 31.2969 16.437Z" fill="#F19D2A"/>
<path d="M31.5882 11.9271C31.3137 11.6525 30.8685 11.6525 30.5939 11.9271L29.5995 12.9215C29.3249 13.1961 29.3249 13.6413 29.5995 13.9159C29.874 14.1904 30.3193 14.1904 30.5939 13.9159L31.5882 12.9215C31.8628 12.6469 31.8628 12.2017 31.5882 11.9271Z" fill="#F19D2A"/>
<path d="M31.5882 21.359L30.5939 20.3646C30.3193 20.09 29.8741 20.09 29.5995 20.3646C29.3249 20.6392 29.3249 21.0844 29.5995 21.359L30.5939 22.3534C30.8684 22.6279 31.3136 22.6279 31.5882 22.3534C31.8628 22.0788 31.8628 21.6336 31.5882 21.359Z" fill="#F19D2A"/>
</g>
<defs>
<clipPath id="clip0_67_1723">
<rect width="24" height="24" fill="white" transform="translate(8 8)"/>
</clipPath>
</defs>
</svg>
