<svg width="40" height="40" viewBox="0 0 40 40" fill="none" xmlns="http://www.w3.org/2000/svg">
<circle opacity="0.2" cx="20" cy="20" r="20" fill="#DB4747"/>
<g clip-path="url(#clip0_67_1755)">
<path d="M20 30.6648C19.6583 30.6648 19.3289 30.541 19.0722 30.3162C18.1027 29.4684 17.1679 28.6717 16.3432 27.9689L16.339 27.9653C13.9211 25.9048 11.8331 24.1254 10.3804 22.3725C8.75641 20.4129 8 18.5549 8 16.5252C8 14.5532 8.67621 12.7338 9.90393 11.4021C11.1463 10.0546 12.851 9.3125 14.7046 9.3125C16.09 9.3125 17.3587 9.75049 18.4755 10.6142C19.0391 11.0502 19.5499 11.5837 20 12.2061C20.4503 11.5837 20.9609 11.0502 21.5247 10.6142C22.6415 9.75049 23.9102 9.3125 25.2956 9.3125C27.149 9.3125 28.8539 10.0546 30.0963 11.4021C31.324 12.7338 32 14.5532 32 16.5252C32 18.5549 31.2438 20.4129 29.6198 22.3723C28.1671 24.1254 26.0793 25.9046 23.6617 27.9649C22.8356 28.6688 21.8994 29.4667 20.9276 30.3165C20.6711 30.541 20.3415 30.6648 20 30.6648ZM14.7046 10.7184C13.2484 10.7184 11.9106 11.2996 10.9374 12.355C9.94971 13.4263 9.4057 14.9073 9.4057 16.5252C9.4057 18.2323 10.0402 19.759 11.4627 21.4755C12.8376 23.1346 14.8828 24.8774 17.2507 26.8954L17.2551 26.899C18.0829 27.6046 19.0213 28.4044 19.998 29.2584C20.9805 28.4027 21.9204 27.6016 22.7499 26.895C25.1176 24.877 27.1625 23.1346 28.5375 21.4755C29.9598 19.759 30.5943 18.2323 30.5943 16.5252C30.5943 14.9073 30.0503 13.4263 29.0626 12.355C28.0896 11.2996 26.7516 10.7184 25.2956 10.7184C24.2288 10.7184 23.2494 11.0575 22.3846 11.7262C21.6139 12.3224 21.077 13.076 20.7623 13.6034C20.6004 13.8746 20.3155 14.0364 20 14.0364C19.6845 14.0364 19.3996 13.8746 19.2377 13.6034C18.9232 13.076 18.3863 12.3224 17.6154 11.7262C16.7506 11.0575 15.7712 10.7184 14.7046 10.7184Z" fill="#DB4747"/>
</g>
<defs>
<clipPath id="clip0_67_1755">
<rect width="24" height="24" fill="white" transform="translate(8 8)"/>
</clipPath>
</defs>
</svg>
